<?xml version="1.0" standalone="no"?>
<!DOCTYPE svg PUBLIC "-//W3C//DTD SVG 20010904//EN"
 "http://www.w3.org/TR/2001/REC-SVG-20010904/DTD/svg10.dtd">
<svg version="1.0" xmlns="http://www.w3.org/2000/svg"
 width="400.000000pt" height="400.000000pt" viewBox="0 0 400.000000 400.000000"
 preserveAspectRatio="xMidYMid meet">
<metadata>
Created by potrace 1.14, written by Peter Selinger 2001-2017
</metadata>
<g transform="translate(0.000000,400.000000) scale(0.100000,-0.100000)"
fill="#000000" stroke="none">
<path d="M1991 3581 c-10 -6 -11 -17 -6 -37 17 -66 12 -108 -18 -172 -49 -100
-98 -137 -156 -115 -18 6 -25 15 -24 30 3 24 -21 48 -37 38 -15 -9 -12 -42 5
-49 14 -5 14 -9 0 -35 -19 -38 -48 -58 -77 -55 -13 1 -28 3 -34 3 -6 1 -30 20
-54 43 -49 48 -49 51 18 -118 l47 -120 352 0 351 -1 16 36 c20 48 96 242 96
247 0 2 -16 -14 -35 -35 -63 -70 -131 -74 -169 -10 -17 29 -17 31 -1 49 14 16
15 23 6 34 -19 22 -44 8 -37 -21 5 -19 1 -25 -19 -33 -45 -17 -72 -11 -106 22
-45 45 -96 155 -82 177 7 11 7 23 2 33 -5 10 -5 26 0 40 5 15 5 31 0 41 -11
19 -18 21 -38 8z m46 -298 c20 -48 20 -48 0 -95 -11 -27 -23 -48 -26 -48 -4 0
-16 22 -28 49 l-20 49 20 46 c11 25 23 46 27 46 4 0 16 -21 27 -47z m-310
-214 c9 -9 8 -16 -3 -27 -14 -13 -17 -13 -32 2 -15 15 -15 18 -2 26 19 12 24
12 37 -1z m120 -5 c9 -23 -13 -40 -32 -24 -12 10 -13 16 -4 26 15 18 28 18 36
-2z m120 0 c9 -23 -13 -40 -32 -24 -12 10 -13 16 -4 26 15 18 28 18 36 -2z
m122 2 c9 -10 8 -16 -4 -26 -21 -17 -51 6 -34 26 6 8 15 14 19 14 4 0 13 -6
19 -14z m120 1 c16 -20 -6 -39 -31 -26 -15 8 -17 13 -7 25 14 17 23 18 38 1z
m120 -1 c8 -10 8 -16 -3 -25 -10 -9 -16 -8 -26 3 -12 15 -6 36 9 36 5 0 14 -6
20 -14z"/>
<path d="M1507 3326 c-6 -16 11 -36 30 -36 7 0 13 11 13 25 0 18 -5 25 -19 25
-10 0 -21 -6 -24 -14z"/>
<path d="M2467 3333 c-10 -10 -8 -43 2 -43 24 0 38 13 34 31 -5 19 -23 25 -36
12z"/>
<path d="M2696 2948 c16 -18 50 -60 75 -92 29 -39 82 -88 155 -142 62 -46 115
-89 118 -96 3 -7 3 -2 0 12 -13 54 -60 133 -106 180 -49 50 -165 127 -233 155
l-40 17 31 -34z"/>
<path d="M1256 2940 c-135 -70 -220 -149 -266 -246 -37 -77 -38 -90 -2 -57 15
14 61 49 102 78 41 29 89 68 106 87 48 52 135 168 126 168 -4 0 -34 -14 -66
-30z"/>
<path d="M1883 2503 l-140 -328 -37 -7 c-20 -4 -53 -16 -74 -27 -63 -32 -327
-117 -397 -128 -16 -3 -34 -8 -38 -12 -12 -12 80 -1 156 19 74 19 86 18 33 -4
-50 -21 -132 -36 -208 -39 -38 -1 -68 -5 -68 -8 0 -16 56 -27 122 -24 71 4
200 36 226 57 8 7 12 7 12 0 0 -17 -118 -69 -199 -89 -45 -11 -66 -20 -58 -25
8 -4 25 -5 38 -3 67 12 169 40 208 57 24 10 46 16 49 14 10 -11 -160 -76 -198
-76 -11 0 -20 -4 -20 -10 0 -23 214 31 299 75 17 8 31 11 31 6 0 -12 -158 -79
-227 -95 -41 -10 -53 -16 -41 -21 22 -9 101 10 197 46 41 16 77 27 79 25 6 -7
-71 -42 -137 -62 -34 -10 -61 -21 -61 -25 0 -7 102 15 145 31 34 13 35 13 29
-5 -3 -8 -22 -18 -42 -21 -30 -6 -33 -8 -17 -14 11 -4 23 -6 28 -3 16 9 5 -25
-34 -103 -47 -95 -64 -113 -127 -135 -26 -9 -47 -22 -47 -30 0 -12 35 -14 203
-15 190 -1 202 0 202 18 0 10 -8 19 -17 19 -100 8 -139 38 -128 100 8 47 54
152 73 167 12 9 13 12 2 12 -8 0 3 12 23 26 21 14 41 24 43 21 3 -2 -7 -12
-22 -21 -14 -10 -24 -20 -21 -23 6 -5 82 41 92 56 4 7 21 1 45 -14 22 -14 42
-25 45 -25 3 0 5 20 5 45 0 43 1 45 30 45 17 0 30 -3 31 -7 0 -5 3 -65 6 -136
l5 -128 -36 23 c-38 25 -48 58 -17 58 10 0 24 6 30 14 15 18 -11 40 -38 31
-27 -8 -60 -51 -56 -73 2 -9 4 -20 4 -23 1 -3 21 -17 46 -30 43 -23 44 -24 25
-42 -29 -26 -25 -52 12 -81 l32 -25 -27 -21 c-36 -28 -34 -61 5 -105 19 -22
27 -39 21 -43 -23 -15 -23 -49 -2 -76 16 -20 19 -30 10 -39 -6 -6 -11 -16 -11
-22 0 -5 5 -2 11 8 12 21 30 13 23 -11 -5 -14 -4 -14 4 -3 6 8 8 20 5 27 -2 7
3 24 13 39 15 23 16 31 5 61 -12 33 -11 37 18 70 38 42 38 53 6 88 l-25 28 30
28 c36 34 37 44 6 73 l-24 23 44 23 c54 29 66 61 37 99 -21 29 -59 40 -76 23
-14 -14 9 -41 34 -41 11 0 19 -4 19 -9 0 -11 -62 -61 -76 -61 -5 0 -8 57 -6
130 l3 130 33 0 c32 0 33 -1 31 -37 -3 -61 3 -65 43 -38 38 26 58 31 64 17 2
-4 20 -18 40 -30 29 -18 43 -38 68 -98 54 -130 41 -187 -46 -200 -44 -6 -63
-19 -49 -32 4 -4 119 -7 256 -8 231 -1 249 1 249 17 0 12 -11 19 -41 24 -72
12 -111 57 -175 203 l-33 72 57 -5 c60 -5 51 0 -38 25 -25 7 -40 15 -34 17 7
2 47 -5 90 -17 43 -11 86 -20 96 -20 20 0 25 20 6 21 -7 0 -20 2 -28 4 -8 2
-26 5 -40 8 -42 9 -130 43 -143 56 -15 15 -11 14 71 -13 70 -24 149 -41 185
-39 49 2 46 6 -18 18 -61 11 -185 57 -185 69 0 2 42 -9 93 -25 96 -31 230 -50
212 -31 -5 6 -28 13 -50 16 -38 6 -97 26 -179 61 -44 18 -44 31 0 14 16 -6 36
-12 44 -14 8 -2 37 -8 65 -15 69 -16 155 -14 196 3 38 17 39 17 -81 22 -70 2
-206 32 -196 43 3 2 27 -1 53 -7 56 -12 180 -25 173 -17 -3 3 -21 8 -40 11
-97 17 -369 95 -417 120 -20 11 -41 52 -100 192 -41 98 -80 192 -88 208 -7 17
-37 87 -65 158 -39 93 -57 127 -70 127 -13 0 -51 -80 -157 -327z m169 -120
c31 -76 70 -169 86 -208 l29 -70 -33 -30 c-19 -17 -34 -36 -34 -43 0 -7 -14
-12 -34 -12 -34 0 -35 0 -32 43 1 23 6 48 10 55 4 7 5 16 2 19 -3 3 3 18 14
33 23 32 25 52 8 83 -24 47 -63 61 -107 40 -42 -21 -58 -70 -36 -112 8 -17 20
-31 26 -31 6 0 7 -5 4 -10 -4 -6 -3 -16 2 -23 4 -7 8 -30 8 -52 0 -62 -31 -60
-94 6 -28 29 -51 56 -51 60 0 3 12 33 26 65 40 91 58 132 100 231 21 51 41 93
44 93 3 0 31 -62 62 -137z m-62 -783 c0 -28 -2 -30 -20 -20 -16 9 -18 15 -10
30 16 29 30 24 30 -10z m59 16 c14 -16 4 -46 -14 -46 -9 0 -13 11 -13 30 1 33
9 38 27 16z m-53 -166 c6 -50 5 -54 -10 -41 -32 27 -38 49 -20 76 9 14 18 24
20 22 2 -2 6 -27 10 -57z m64 11 c-1 -17 -23 -51 -34 -51 -3 0 -6 23 -6 52 0
50 0 51 20 33 11 -10 20 -25 20 -34z m-55 -131 c-2 -11 0 -20 6 -20 5 0 9 7 9
16 0 8 4 13 9 10 16 -10 5 -39 -17 -47 -23 -9 -36 12 -27 42 8 25 25 24 20 -1z"/>
<path d="M954 2792 c-19 -12 -84 -104 -98 -137 -22 -52 -29 -113 -28 -229 1
-60 4 -111 5 -113 2 -1 18 19 35 46 30 46 106 118 161 152 42 26 125 110 154
157 15 23 25 42 22 42 -6 0 -66 -41 -75 -51 -3 -3 -32 -21 -65 -39 -61 -35
-86 -54 -138 -105 l-30 -29 7 45 c4 25 9 57 11 70 2 13 6 40 9 59 8 51 23 100
37 116 13 16 9 26 -7 16z"/>
<path d="M3066 2733 c12 -37 25 -94 28 -126 3 -31 9 -70 13 -85 6 -25 5 -26
-12 -12 -10 8 -32 28 -49 43 -17 15 -56 42 -86 59 -30 18 -79 50 -109 71 l-54
40 24 -42 c31 -56 77 -102 181 -183 47 -36 99 -84 114 -105 16 -21 32 -39 37
-41 4 -2 7 -10 7 -17 0 -8 5 -17 10 -20 7 -4 9 45 8 142 -3 144 -4 150 -35
213 -17 36 -47 80 -66 98 l-34 33 23 -68z"/>
<path d="M759 2537 c-35 -61 -59 -153 -59 -226 0 -51 7 -81 38 -155 22 -50 42
-100 46 -111 6 -16 12 -10 39 37 30 54 48 77 125 172 36 43 117 195 108 203
-3 3 -43 -32 -91 -78 -80 -77 -145 -174 -145 -216 0 -7 -4 -13 -8 -13 -12 0
-42 211 -42 285 0 33 5 78 10 100 5 22 8 41 6 42 -1 2 -13 -16 -27 -40z"/>
<path d="M3225 2560 c14 -50 13 -187 0 -259 -8 -41 -16 -89 -17 -108 -3 -44
-15 -51 -23 -14 -11 52 -72 140 -140 203 -104 97 -112 101 -80 37 52 -107 70
-135 131 -209 35 -41 75 -99 91 -130 l27 -56 34 81 c18 44 40 100 49 125 28
84 0 243 -58 325 -20 28 -20 28 -14 5z"/>
<path d="M3350 2250 c-1 -3 -3 -14 -4 -25 -7 -55 -23 -98 -71 -196 -29 -60
-56 -127 -60 -149 -8 -47 -14 -47 -21 2 -12 82 -45 155 -111 243 l-45 60 6
-65 c6 -68 21 -118 76 -255 18 -44 35 -102 39 -128 l6 -49 52 79 c29 43 70
103 91 133 52 74 66 120 64 215 -1 66 -16 154 -22 135z"/>
<path d="M644 2205 c-4 -22 -7 -74 -7 -115 0 -86 19 -137 74 -210 58 -75 119
-168 119 -181 0 -24 11 -1 16 33 7 48 22 93 60 179 18 43 37 94 43 115 12 50
24 144 17 144 -3 0 -25 -29 -51 -64 -47 -66 -83 -138 -92 -184 -3 -15 -6 -34
-8 -42 -2 -8 -4 -26 -5 -40 -1 -15 -10 5 -24 50 -12 41 -41 111 -64 156 -23
44 -48 107 -56 140 l-13 59 -9 -40z"/>
<path d="M928 1830 c-48 -136 -56 -174 -47 -235 5 -27 7 -51 5 -52 -1 -2 -21
25 -45 60 -23 34 -70 94 -103 132 -33 39 -74 91 -90 118 -16 26 -32 47 -34 47
-7 0 6 -79 22 -136 18 -62 73 -157 117 -199 18 -17 64 -55 102 -85 39 -29 77
-62 86 -72 24 -26 28 -22 19 16 -10 43 -6 90 16 232 16 101 16 120 3 195 l-15
84 -36 -105z"/>
<path d="M3037 1910 c-18 -65 -19 -180 -2 -284 11 -65 16 -132 12 -172 -5 -64
-5 -65 14 -45 10 11 54 47 97 79 150 115 218 222 236 376 6 55 7 56 -56 -34
-25 -36 -60 -81 -77 -100 -18 -19 -53 -64 -78 -100 -26 -36 -49 -69 -53 -73
-4 -4 -6 27 -4 70 3 69 -1 90 -32 173 -54 147 -49 138 -57 110z"/>
<path d="M2947 1584 c-46 -103 -57 -144 -76 -271 -11 -67 -26 -136 -35 -154
-9 -18 -16 -33 -16 -35 0 -1 19 8 43 21 23 13 80 36 127 51 93 29 149 58 195
102 71 66 105 119 136 208 27 79 24 83 -17 27 -49 -65 -96 -105 -166 -145 -33
-18 -86 -50 -119 -70 -32 -21 -59 -36 -59 -34 0 2 7 23 16 47 16 47 18 95 6
229 l-7 85 -28 -61z"/>
<path d="M1024 1548 c-11 -114 -9 -175 9 -225 8 -24 13 -43 11 -43 -2 0 -30
17 -63 38 -33 20 -87 52 -120 71 -65 37 -112 77 -156 134 -15 21 -29 36 -31
34 -5 -5 30 -103 52 -147 10 -19 45 -63 79 -97 63 -63 128 -100 215 -123 56
-15 130 -47 153 -68 21 -19 21 -14 1 26 -8 18 -22 71 -30 119 -26 156 -42 217
-77 292 l-34 72 -9 -83z"/>
<path d="M2761 1298 c-40 -47 -86 -114 -105 -153 -63 -130 -95 -206 -85 -200
5 4 62 7 127 7 171 1 302 46 387 132 46 47 107 148 69 115 -32 -28 -117 -74
-160 -87 -22 -6 -69 -14 -105 -18 -56 -5 -82 -13 -174 -49 -19 -8 -19 -7 -4
11 37 43 69 114 89 194 11 47 25 95 30 108 5 12 8 22 6 22 -2 0 -36 -37 -75
-82z"/>
<path d="M1173 1365 c3 -6 17 -55 32 -110 25 -95 37 -123 81 -190 19 -29 19
-29 -1 -21 -55 23 -98 36 -137 41 -138 17 -174 29 -262 87 -61 41 -61 40 -14
-30 60 -89 117 -129 233 -167 67 -22 101 -26 206 -28 123 -2 126 -1 119 18
-47 117 -105 234 -136 271 -43 54 -128 144 -121 129z"/>
<path d="M1678 925 c-1 -1 -28 -6 -58 -9 -70 -8 -102 -14 -170 -31 -164 -40
-284 -41 -355 -3 -19 11 -19 10 -2 -9 27 -30 123 -79 192 -97 42 -11 91 -14
165 -12 117 5 116 4 238 41 47 15 96 29 107 31 35 8 125 15 125 10 0 -3 -24
-21 -53 -39 -47 -30 -177 -148 -177 -160 0 -3 15 -5 34 -5 29 0 39 6 62 39 55
81 153 148 215 149 59 0 182 -85 224 -157 16 -27 26 -33 52 -33 18 0 33 3 33
7 0 15 -140 138 -190 167 l-55 31 53 3 c38 2 91 -7 180 -32 200 -55 275 -62
401 -39 95 18 211 76 211 106 0 6 -5 6 -12 -1 -40 -31 -173 -31 -313 1 -162
38 -189 41 -315 41 -90 0 -133 -5 -197 -23 -77 -22 -85 -22 -130 -8 -69 22
-252 44 -265 32z"/>
</g>
</svg>
